<svg xmlns="http://www.w3.org/2000/svg" width="65" height="62" viewBox="0 0 65 62"><path fill="currentColor" d="M23.62 49.07c0-3.4-1.46-6.47-3.77-8.62l3.47-3.46a.996.996 0 1 0-1.41-1.41l-3.64 3.63a11.75 11.75 0 0 0-6.46-1.94C5.3 37.26 0 42.56 0 49.07c0 6.51 5.3 11.81 11.81 11.81 6.51 0 11.81-5.3 11.81-11.81ZM2 49.07c0-5.41 4.4-9.81 9.81-9.81s9.81 4.4 9.81 9.81c0 2.9-1.27 5.51-3.29 7.31v-5.43c0-1-.32-2.44-1.87-3.35.41-.75.66-1.6.66-2.51 0-2.93-2.38-5.31-5.31-5.31-2.93 0-5.31 2.38-5.31 5.31 0 .91.25 1.76.66 2.51-1.56.91-1.87 2.34-1.87 3.35v5.43c-2.01-1.8-3.28-4.4-3.28-7.31H2Zm12.56-2.14c-.6.89-1.61 1.47-2.75 1.47s-2.16-.59-2.75-1.47c-.35-.53-.56-1.16-.56-1.84 0-1.83 1.49-3.31 3.31-3.31a3.32 3.32 0 0 1 3.31 3.31c0 .68-.21 1.31-.56 1.84Zm-7.28 4.02c0-.4 0-1.26 1.17-1.77.92.76 2.08 1.23 3.36 1.23 1.28 0 2.44-.47 3.36-1.23 1.16.52 1.17 1.37 1.17 1.77v6.82a9.735 9.735 0 0 1-4.53 1.12c-1.64 0-3.17-.41-4.53-1.12v-6.82Zm4.53-27.33c2.5 0 4.82-.79 6.73-2.12l3.37 3.37c.2.19.45.29.71.29.26 0 .51-.1.71-.29a.996.996 0 0 0 0-1.41l-3.24-3.23c2.18-2.14 3.53-5.12 3.53-8.41C23.62 5.3 18.33 0 11.81 0 5.29 0 0 5.3 0 11.81c0 6.51 5.3 11.81 11.81 11.81Zm0-21.62c5.41 0 9.81 4.4 9.81 9.81 0 2.9-1.27 5.51-3.29 7.31v-5.43c0-1-.32-2.44-1.87-3.35.41-.75.66-1.6.66-2.51 0-2.93-2.38-5.31-5.31-5.31-2.93 0-5.31 2.38-5.31 5.31 0 .91.25 1.76.66 2.51-1.56.91-1.87 2.34-1.87 3.35v5.43C3.28 17.32 2 14.72 2 11.81 2 6.4 6.4 2 11.81 2Zm0 19.62c-1.63 0-3.17-.41-4.53-1.12v-6.82c0-.4 0-1.26 1.17-1.77.92.76 2.08 1.23 3.36 1.23 1.28 0 2.44-.47 3.36-1.23 1.16.52 1.17 1.37 1.17 1.77v6.82a9.735 9.735 0 0 1-4.53 1.12ZM8.5 7.83c0-1.83 1.49-3.31 3.31-3.31a3.32 3.32 0 0 1 3.31 3.31 3.312 3.312 0 0 1-3.31 3.31c-1.14 0-2.16-.59-2.75-1.47-.35-.53-.56-1.16-.56-1.84Zm44 30.02c-2.25 0-4.35.64-6.14 1.74-.01-.02-.02-.04-.04-.05l-3.98-3.97a.996.996 0 1 0-1.41 1.41l3.81 3.8c-2.48 2.17-4.05 5.34-4.05 8.88 0 6.51 5.3 11.81 11.81 11.81 6.51 0 11.81-5.3 11.81-11.81 0-6.51-5.3-11.81-11.81-11.81Zm6.53 19.12v-5.43c0-1-.32-2.44-1.87-3.35.41-.75.66-1.6.66-2.51 0-2.93-2.38-5.31-5.31-5.31-2.93 0-5.31 2.38-5.31 5.31 0 .91.25 1.76.66 2.51-1.56.91-1.87 2.34-1.87 3.35v5.42c-2.01-1.8-3.28-4.4-3.28-7.31 0-5.41 4.4-9.81 9.81-9.81s9.81 4.4 9.81 9.81c0 2.9-1.27 5.51-3.29 7.31l-.01.01Zm-6.53 2.51c-1.63 0-3.17-.41-4.53-1.12v-6.82c0-.4 0-1.26 1.17-1.78.92.76 2.08 1.23 3.36 1.23 1.28 0 2.44-.47 3.36-1.23 1.16.52 1.17 1.37 1.17 1.78v6.82a9.735 9.735 0 0 1-4.53 1.12Zm-3.31-13.79c0-1.83 1.49-3.31 3.31-3.31a3.32 3.32 0 0 1 3.31 3.31A3.312 3.312 0 0 1 52.5 49c-1.14 0-2.16-.59-2.75-1.47-.35-.53-.56-1.16-.56-1.84ZM52.5.59c-6.51 0-11.81 5.3-11.81 11.81 0 3.13 1.23 5.97 3.22 8.08l-2.98 2.97a.996.996 0 0 0 .71 1.7c.26 0 .51-.1.71-.29l3.06-3.05a11.7 11.7 0 0 0 7.1 2.39c6.51 0 11.81-5.3 11.81-11.81 0-6.51-5.31-11.8-11.82-11.8Zm6.53 19.12v-5.43c0-1-.32-2.44-1.87-3.35.41-.75.66-1.6.66-2.51 0-2.93-2.38-5.31-5.31-5.31-2.93 0-5.31 2.38-5.31 5.31 0 .91.25 1.76.66 2.51-1.56.91-1.87 2.34-1.87 3.35v4.98a.989.989 0 0 0-.51-.04 9.786 9.786 0 0 1-2.77-6.82c0-5.41 4.4-9.81 9.81-9.81s9.81 4.4 9.81 9.81c0 2.9-1.27 5.51-3.29 7.31h-.01Zm-6.53 2.51c-1.63 0-3.17-.41-4.53-1.12v-6.82c0-.4 0-1.26 1.17-1.78.92.76 2.08 1.23 3.36 1.23 1.28 0 2.44-.47 3.36-1.23 1.16.52 1.17 1.37 1.17 1.77v6.82a9.735 9.735 0 0 1-4.53 1.12v.01ZM49.19 8.43c0-1.83 1.49-3.31 3.31-3.31a3.32 3.32 0 0 1 3.31 3.31c0 .68-.21 1.31-.56 1.84a3.3 3.3 0 0 1-2.75 1.47c-1.14 0-2.16-.59-2.75-1.47-.35-.53-.56-1.16-.56-1.84ZM37.04 25.75a6.522 6.522 0 0 0 1.56-4.24 6.56 6.56 0 0 0-6.55-6.55 6.56 6.56 0 0 0-6.55 6.55c0 1.62.59 3.09 1.56 4.24-2.49.96-3.13 2.83-3.13 4.48v9.17c0 .28.02.56.06.83.07.55.57.92 1.12.86.5-.07.85-.5.85-.99 0-.04.01-.09 0-.13-.02-.19-.04-.38-.04-.57v-9.17c0-.71.01-2.4 3.03-2.95a6.54 6.54 0 0 0 6.16 0c3.02.55 3.03 2.23 3.03 2.95v9.17c0 .19-.02.38-.04.57v.13c0 .49.35.92.85.99h.14a1 1 0 0 0 .99-.87c.04-.27.06-.55.06-.84v-9.17c0-1.65-.64-3.53-3.12-4.48l.02.02Zm-9.53-4.24c0-2.51 2.04-4.55 4.55-4.55s4.55 2.04 4.55 4.55c0 1.53-.76 2.87-1.92 3.7-.74.53-1.65.85-2.63.85s-1.89-.32-2.63-.85c-1.16-.83-1.92-2.17-1.92-3.7Z"></path></svg>