<svg xmlns="http://www.w3.org/2000/svg" width="52" height="56" viewBox="0 0 52 56" className="mb-4 text-green-700" ><path fill="currentColor" d="M1 46.91c.27 0 .53-.11.73-.31l8.47-9c1.08.73 2.02 1.23 2.49 1.35.05.02 4.35 1.19 12.84 4.14l-6.98 10.49c-.31.46-.18 1.08.28 1.39.17.11.36.17.55.17.32 0 .64-.16.83-.45l7.26-10.92c1.99.7 4.17 1.49 6.57 2.38 2.21.82 9.67 6.61 12.36 8.77a1.008 1.008 0 0 0 1.41-.15c.35-.43.28-1.06-.15-1.41-1.02-.82-10.01-8.01-12.92-9.09-2.28-.84-4.35-1.59-6.27-2.27-10.08-3.57-15.2-4.97-15.32-5-.72-.21-5.01-2.91-6.26-5.39-.28-.56-.36-1.02-.23-1.38.19-.53.37-.9.52-1.15 2.08 2.12 5.03 3.97 5.91 4.09.05 0 .1.01.14.01.38 0 .74-.22.91-.55.05-.09.09-.2.11-.31.07-.52-.24-.98-.74-1.09-.06-.13-.14-.26-.26-.36l-.1-.09.02.31c-1.04-.5-4.11-2.52-5.56-4.56-.17-.24-.32-.47-.44-.71-.28-.56-.36-1.02-.23-1.37.23-.65.44-1.05.61-1.3 1.68 1.61 3.71 2.97 4.99 3.63h.02c.13.07.26.14.38.19.28.13.51.21.66.23.05 0 .1.01.14.01.49 0 .94-.36 1.01-.85a.963.963 0 0 0-.61-1.05c-.07-.03-.14-.07-.22-.08-.1-.03-.26-.1-.47-.21-1.16-.61-3.78-2.37-5.44-4.27-.44-.5-.82-1.02-1.07-1.52-.33-.65-.42-1.2-.27-1.63.52-1.43.95-1.83 1.1-1.94l6.65 2.91 2.32 1.01h.01c.51.23 1.1 0 1.32-.51.22-.51 0-1.1-.52-1.32l-1.93-.84-6.84-2.99c-.58-.43-1.06-.88-1.35-1.36-.33-.56-.26-.94-.17-1.17.92-2.56 3.8-2.38 4.25-2.33l10.87 3 2.6-.24.8-.07c-.31.87-.45 1.75-.23 2.53.2.72.78 1.67 2.37 2.11.16.06.33.09.52.09h.05c-.26.71-.4 1.46-.25 2.19.17.82.75 1.93 2.57 2.61.18.07.39.1.62.1.33 0 .71-.09 1.12-.21-.1.4-.14.8-.09 1.21.1.74.55 1.77 2.13 2.48.15.07.33.1.53.1.28 0 .62-.07 1-.2 0 .58.2 1.34.97 2.04.34.32.83.47 1.51.47.33 0 .7-.04 1.12-.11.64-.11 1.47-.33 2.35-.64.03.24.07.49.16.76.75 2.39 3.56 4.61 8.37 6.6.12.05.25.08.38.08a1.004 1.004 0 0 0 .38-1.93c-5.44-2.25-6.84-4.26-7.19-5.26-.17-.5-.14-.85-.08-1.06 1.75-.82 3.38-1.91 4.01-3.12.49-.92.51-2.06.07-3.11-.36-.86-.99-1.57-1.82-2.1.39-.35.79-.7 1.2-1.08l.29-.26.03-.39c.02-.26.18-2.61-1.25-4.11-.42-.45-.96-.76-1.56-.95.11-.19.21-.38.28-.55.47-1.12.42-2.96-.58-4.32-.5-.68-1.36-1.42-2.82-1.67.07-.26.1-.53.09-.79-.08-1.48-1.39-2.21-1.54-2.29l-.29-.1C39.25.71 30.87-.69 28.18.46c-.93.4-2.01 1.03-3.12 1.75-3.62-2.84-6.04-.23-7.82 1.69-.54.59-1.06 1.15-1.59 1.57-2.08 1.65-3.5 1.59-3.51 1.59v.12l-.19-.05-.13-.03c-1.7-.23-5.24.22-6.46 3.63-.34.95-.22 1.95.34 2.89.15.25.33.48.54.72-.56.54-1.05 1.4-1.48 2.6-.39 1.09-.19 2.32.61 3.66.22.36.48.72.76 1.08-.41.5-.78 1.2-1.11 2.11-.37 1.02-.18 2.16.57 3.39.07.11.15.22.22.33-.4.49-.75 1.18-1.07 2.07-.37 1.02-.18 2.16.57 3.39.73 1.21 1.96 2.42 3.23 3.44L.27 45.22A.996.996 0 0 0 1 46.9v.01Zm26.5-33.16c-.34-1.2 1.4-3.75 2.86-5.34 1.05.28 2.92.61 5.05.23-1.61 1.72-3.19 3.27-4.46 4.35 0 0-.02 0-.02.02-.01.01-.04.03-.05.05-1.02.86-1.82 1.41-2.25 1.46l-.1-.03c-.88-.23-.99-.61-1.02-.73l-.01-.01Zm18.85 6.49c.21.49.21 1.02 0 1.41-.96 1.83-6.77 3.88-7.94 3.62-.25-.25-.27-.44-.25-.59.05-.49.56-1.1 1.17-1.64 1.5-1.02 3.31-2.43 5.42-4.25.77.32 1.34.82 1.6 1.45Zm-1.16-7.35c.56.58.7 1.59.72 2.21-2.06 1.85-4.33 3.75-6.26 5.22-.2.12-.87.54-1.58 1.16-1.27.89-2.25 1.46-2.73 1.51-.53-.26-.82-.55-.87-.88-.12-.84.95-2.1 1.67-2.78 2.78-1.86 5.84-4.66 7.7-6.96.58.02 1.03.18 1.35.52Zm-2.01-6.01c.58.79.55 1.88.35 2.36-.98 2.36-4.87 5.9-8.01 8.12-.14.04-.28.09-.4.19-.06.05-.2.17-.39.35-1.37.91-2.53 1.5-3.09 1.5h-.11c-1.16-.43-1.27-.96-1.31-1.14-.23-1.12 1.18-2.93 1.98-3.72 1.99-1.61 4.52-4.22 7.58-7.8.35-.26.66-.51.93-.77 1.13-.04 1.97.26 2.46.92l.01-.01ZM29 2.28c1.58-.68 7.3-.06 10.68.51.14.11.37.32.38.56 0 .15-.08.64-1.02 1.43-.17.06-.34.14-.46.29-.05.06-.1.12-.16.18l-.2.14c-3.74 2.49-7.96.88-8 .87l-.56-.22-4.31 3.65s-.05.07-.08.1l-2.7.25-3.33-.92c2.3-1.92 6.88-5.59 9.76-6.84ZM16.93 7.01c.65-.51 1.24-1.15 1.81-1.77 1.8-1.95 2.85-2.93 4.59-1.85-2.76 1.97-5.42 4.22-6.42 5.08l-1.51-.42c.48-.27.99-.61 1.54-1.04h-.01Z"></path></svg>